<svg width="358" height="120" viewBox="0 0 358 120" fill="none" xmlns="http://www.w3.org/2000/svg">
<path d="M151.515 83.9878C148.698 83.9878 146.743 83.4862 145.649 82.4829C145.095 81.9554 144.661 81.3144 144.378 80.6041C144.094 79.8937 143.968 79.1307 144.007 78.367C144.002 77.5409 144.197 76.7258 144.575 75.991C144.988 75.2111 145.52 74.5001 146.152 73.8836L161.636 58.4855C161.719 58.4084 161.786 58.3153 161.832 58.2117C161.877 58.1081 161.902 57.9963 161.903 57.8831C161.903 57.4819 161.523 57.2819 160.765 57.2819H145.482C145.39 57.296 145.296 57.2883 145.207 57.2594C145.119 57.2305 145.039 57.1813 144.973 57.1156C144.907 57.0499 144.858 56.9697 144.829 56.8814C144.8 56.7931 144.792 56.6994 144.806 56.6076V49.7817C144.793 49.6904 144.801 49.5972 144.831 49.5097C144.86 49.4221 144.91 49.3427 144.975 49.2777C145.041 49.2126 145.121 49.164 145.209 49.1354C145.297 49.1068 145.39 49.0991 145.482 49.113H167.467C170.103 49.113 171.913 49.6147 172.896 50.618C173.973 51.8926 174.503 53.5403 174.37 55.2026C174.39 56.0236 174.254 56.8409 173.969 57.6112C173.712 58.2632 173.324 58.8554 172.829 59.351L157.743 74.4118C157.478 74.6289 157.31 74.9415 157.274 75.2818C157.274 75.6392 157.518 75.8168 158.01 75.8168H187.392C187.484 75.8029 187.578 75.8107 187.666 75.8397C187.755 75.8687 187.835 75.918 187.901 75.9836C187.966 76.0492 188.016 76.1294 188.045 76.2175C188.074 76.3057 188.082 76.3993 188.068 76.4911V83.3168C188.081 83.4082 188.073 83.5013 188.043 83.5889C188.014 83.6764 187.964 83.7559 187.899 83.8209C187.833 83.8859 187.753 83.9347 187.665 83.9633C187.577 83.9919 187.484 83.9994 187.392 83.9855L151.515 83.9878Z" fill="white"/>
<path d="M181.073 36.0067H187.91C188.001 35.9931 188.095 36.0008 188.183 36.0295C188.27 36.0582 188.35 36.107 188.416 36.1719C188.481 36.2369 188.531 36.3162 188.56 36.4036C188.59 36.491 188.599 36.5841 188.586 36.6755V83.3191C188.599 83.4104 188.59 83.5034 188.56 83.5909C188.531 83.6783 188.481 83.7576 188.416 83.8226C188.35 83.8875 188.27 83.9363 188.183 83.965C188.095 83.9937 188.001 84.0015 187.91 83.9878H181.073C180.982 84.0017 180.889 83.994 180.801 83.9654C180.713 83.9368 180.633 83.8881 180.567 83.8231C180.501 83.7581 180.452 83.6787 180.423 83.5911C180.393 83.5036 180.385 83.4104 180.398 83.3191V36.6755C180.385 36.5841 180.394 36.491 180.423 36.4036C180.453 36.3162 180.502 36.2369 180.568 36.1719C180.633 36.107 180.713 36.0582 180.801 36.0295C180.889 36.0008 180.982 35.9931 181.073 36.0067ZM201.656 49.6581C201.806 49.4792 201.997 49.3378 202.212 49.2449C202.426 49.1521 202.66 49.1104 202.894 49.1231H212.377C212.619 49.1231 212.752 49.1894 212.778 49.3243C212.804 49.4591 212.715 49.6142 212.522 49.7918L198.881 64.0457C198.783 64.1367 198.675 64.2469 198.553 64.3829C198.454 64.4703 198.389 64.5896 198.369 64.72C198.393 64.8681 198.457 65.0072 198.553 65.1224C198.647 65.2681 198.757 65.4027 198.881 65.5237L213.324 83.5258C213.567 83.8383 213.494 83.9942 213.106 83.9934H203.695C203.457 83.9941 203.221 83.9402 203.006 83.8358C202.792 83.7313 202.604 83.5792 202.457 83.391L189.763 67.5984C189.412 67.1816 189.119 66.7202 188.889 66.2262C188.655 65.7581 188.53 65.2432 188.524 64.72C188.55 64.2641 188.674 63.8193 188.889 63.4163C189.137 62.8946 189.456 62.4099 189.837 61.9765L201.656 49.6581Z" fill="white"/>
<path d="M245.514 75.9583V83.3191C245.527 83.4104 245.518 83.5035 245.489 83.5909C245.459 83.6783 245.41 83.7577 245.344 83.8226C245.279 83.8876 245.199 83.9364 245.111 83.965C245.023 83.9937 244.93 84.0015 244.838 83.9878H225.405C225.135 83.9919 224.866 83.9696 224.601 83.9214C220.891 83.6104 218.254 82.5285 216.691 80.6755C215.128 78.8225 214.346 76.0231 214.345 72.2774V36.6755C214.332 36.5842 214.341 36.491 214.37 36.4036C214.4 36.3162 214.449 36.2369 214.515 36.172C214.58 36.107 214.66 36.0582 214.748 36.0295C214.836 36.0009 214.929 35.9931 215.021 36.0068H223.4C223.491 35.9928 223.584 36.0005 223.672 36.0291C223.76 36.0577 223.84 36.1064 223.906 36.1714C223.972 36.2364 224.021 36.3159 224.05 36.4034C224.08 36.491 224.088 36.5841 224.075 36.6755V73.0799C224.075 74.5522 224.946 75.2885 226.689 75.2885H244.846C244.937 75.2761 245.03 75.285 245.117 75.3143C245.203 75.3437 245.282 75.3926 245.347 75.4575C245.412 75.5225 245.46 75.6016 245.489 75.6885C245.518 75.7753 245.527 75.8677 245.514 75.9583Z" fill="white"/>
<path d="M255.97 71.14C255.965 71.7924 256.151 72.432 256.506 72.9799C256.885 73.5603 257.374 74.0606 257.947 74.4523C258.612 74.9052 259.349 75.2444 260.126 75.4559C260.998 75.7041 261.9 75.8279 262.807 75.8235H281.466C281.557 75.8106 281.651 75.8192 281.738 75.8486C281.826 75.878 281.905 75.9274 281.97 75.9929C282.035 76.0584 282.084 76.1382 282.113 76.2259C282.142 76.3136 282.149 76.4066 282.136 76.4978V83.3235C282.149 83.4143 282.14 83.507 282.111 83.5941C282.082 83.6811 282.033 83.7602 281.968 83.8251C281.903 83.89 281.824 83.9388 281.737 83.9678C281.65 83.9968 281.557 84.0053 281.466 83.9924H267.431C264.266 84.0544 261.104 83.7401 258.013 83.0561C255.768 82.5709 253.675 81.5488 251.914 80.0776C250.354 78.69 249.217 76.8932 248.63 74.8918C247.933 72.4329 247.606 69.8846 247.657 67.3298C247.554 64.2902 248.115 61.2645 249.301 58.463C250.266 56.2867 251.736 54.3712 253.59 52.8749C255.351 51.4947 257.384 50.5026 259.557 49.9639C261.736 49.4104 263.976 49.1295 266.224 49.1277C268.651 49.0795 271.071 49.4066 273.398 50.0976C275.229 50.6456 276.921 51.5814 278.358 52.8411C279.651 54.0219 280.629 55.505 281.206 57.157C281.83 58.9881 282.134 60.9125 282.106 62.8464V69.8059C282.12 69.8972 282.113 69.9905 282.084 70.0782C282.056 70.166 282.007 70.2459 281.942 70.3115C281.876 70.377 281.797 70.4263 281.709 70.4557C281.622 70.485 281.528 70.4934 281.437 70.4802H256.641C256.551 70.4676 256.459 70.476 256.372 70.5045C256.286 70.5331 256.207 70.5811 256.142 70.6449C256.077 70.7087 256.028 70.7865 255.998 70.8723C255.968 70.9582 255.959 71.0498 255.97 71.14ZM273.869 62.6408C273.961 62.6537 274.054 62.6452 274.142 62.6158C274.229 62.5864 274.308 62.537 274.373 62.4715C274.438 62.4059 274.487 62.326 274.516 62.2384C274.544 62.1507 274.552 62.0576 274.538 61.9664C274.544 61.1445 274.33 60.3359 273.918 59.6244C273.505 58.913 272.91 58.3246 272.193 57.9203C270.19 56.8086 267.912 56.2868 265.624 56.4153C264.617 56.4294 263.616 56.5641 262.641 56.8165C261.556 57.0795 260.501 57.4493 259.489 57.9203C258.551 58.3416 257.699 58.9313 256.974 59.6601C256.662 59.9592 256.412 60.3173 256.24 60.7137C256.067 61.11 255.976 61.5366 255.97 61.9686C255.956 62.0604 255.963 62.1543 255.992 62.2426C256.021 62.3309 256.071 62.4111 256.136 62.4768C256.202 62.5425 256.283 62.5917 256.371 62.6206C256.459 62.6495 256.553 62.6573 256.645 62.6431L273.869 62.6408Z" fill="white"/>
<path d="M295.917 81.8467C295.917 83.2748 295.292 83.9886 294.041 83.9878H289.549C289.267 84.0019 288.986 83.9335 288.742 83.791C288.498 83.6484 288.301 83.438 288.175 83.1853C287.874 82.6075 287.724 81.963 287.74 81.3117V53.5403C287.749 52.966 287.876 52.3995 288.113 51.8758C288.349 51.3521 288.69 50.882 289.114 50.4943C289.576 50.0384 290.126 49.6815 290.731 49.4457C291.336 49.2099 291.983 49.1002 292.632 49.1232H307.781C309.332 49.1109 310.866 49.4422 312.272 50.0932C313.635 50.7255 314.873 51.5982 315.925 52.6692C316.967 53.7303 317.798 54.9795 318.373 56.3502C318.947 57.7055 319.243 59.1618 319.244 60.6334V83.3191C319.244 83.7687 318.996 83.9878 318.505 83.9878H311.736C311.645 84.0018 311.551 83.9941 311.464 83.9655C311.376 83.9369 311.296 83.8882 311.23 83.8232C311.164 83.7582 311.115 83.6787 311.085 83.5912C311.056 83.5036 311.048 83.4105 311.061 83.3191V62.0383C311.095 61.0982 310.923 60.1621 310.558 59.2949C310.254 58.617 309.766 58.0374 309.15 57.6213C308.509 57.2053 307.792 56.921 307.04 56.7851C306.178 56.624 305.302 56.5453 304.426 56.5502H297.923C297.415 56.5568 296.927 56.7473 296.55 57.0862C296.365 57.216 296.212 57.3857 296.102 57.5826C295.991 57.7795 295.927 57.9986 295.913 58.2238L295.917 81.8467Z" fill="white"/>
<path d="M348.937 48.4533V36.6755C348.924 36.5846 348.932 36.492 348.961 36.405C348.99 36.3179 349.039 36.2388 349.104 36.1739C349.169 36.1091 349.249 36.0602 349.336 36.0312C349.423 36.0022 349.516 35.9938 349.607 36.0068H356.443C356.535 35.9928 356.628 36.0005 356.716 36.0291C356.804 36.0577 356.884 36.1064 356.95 36.1714C357.015 36.2364 357.065 36.3159 357.094 36.4034C357.124 36.491 357.132 36.5841 357.119 36.6755V83.3191C357.132 83.4105 357.124 83.5036 357.094 83.5912C357.065 83.6787 357.015 83.7582 356.95 83.8232C356.884 83.8882 356.804 83.9369 356.716 83.9655C356.628 83.994 356.535 84.0017 356.443 83.9878H335.599C333.638 84.0444 331.711 83.4699 330.102 82.3491C328.566 81.2385 327.286 79.8124 326.349 78.1668C325.35 76.4332 324.616 74.5608 324.169 72.6112C323.712 70.7039 323.476 68.7505 323.466 66.7893C323.445 64.3623 323.681 61.9399 324.169 59.5623C324.556 57.585 325.294 55.6929 326.349 53.9752C327.278 52.4854 328.569 51.2538 330.102 50.3943C331.794 49.5052 333.687 49.0674 335.599 49.1231H348.266C348.357 49.1361 348.45 49.1277 348.537 49.0986C348.625 49.0695 348.704 49.0206 348.769 48.9556C348.834 48.8906 348.883 48.8113 348.912 48.7242C348.941 48.637 348.95 48.5443 348.937 48.4533ZM348.937 57.9562C348.95 57.8648 348.942 57.7717 348.912 57.6841C348.883 57.5966 348.833 57.5171 348.768 57.4521C348.702 57.3871 348.622 57.3383 348.534 57.3097C348.446 57.2811 348.353 57.2736 348.261 57.2875H340.956C339.685 57.2762 338.415 57.3993 337.169 57.6549C336.085 57.8734 335.071 58.3565 334.219 59.0611C333.331 59.8417 332.669 60.8469 332.305 61.9709C331.813 63.5283 331.587 65.1571 331.636 66.7893C331.587 68.3121 331.814 69.8313 332.305 71.2738C332.683 72.3344 333.33 73.2795 334.182 74.0174C335.03 74.7075 336.029 75.1888 337.098 75.4223C338.364 75.7032 339.657 75.8378 340.953 75.8235H348.258C348.349 75.8374 348.443 75.8298 348.531 75.8012C348.619 75.7726 348.699 75.7238 348.764 75.6588C348.83 75.5938 348.879 75.5144 348.909 75.4268C348.938 75.3393 348.947 75.2461 348.934 75.1548L348.937 57.9562Z" fill="white"/>
<g clip-path="url(#clip0_1315_2352)">
<path d="M60 120C93.1371 120 120 93.1371 120 60C120 26.8629 93.1371 0 60 0C26.8629 0 0 26.8629 0 60C0 93.1371 26.8629 120 60 120Z" fill="white"/>
<path d="M70.4178 63.7399V81.6123C70.4331 81.9402 70.3798 82.2676 70.2613 82.5737C70.1428 82.8799 69.9617 83.1579 69.7297 83.39C69.4976 83.6222 69.2197 83.8034 68.9136 83.922C68.6075 84.0406 68.2801 84.094 67.9522 84.0789H25.1219C21.2791 84.0789 18.6113 83.3439 16.9662 81.8321C15.3031 80.3048 14.4598 78.229 14.4598 75.6628C14.4541 74.4052 14.7519 73.1648 15.3279 72.0467C15.9012 70.957 16.6403 69.9629 17.5187 69.1001L34.6846 51.9993H0.52726C0.176567 54.6411 0.000518758 57.3031 0.000274658 59.9681C0.000274658 93.1228 26.8632 120 60.0003 120C68.0443 120.009 76.0076 118.396 83.4135 115.256C90.8194 112.116 97.5157 107.514 103.102 101.726L70.4428 63.7724L70.4178 63.7399Z" fill="url(#paint0_linear_1315_2352)"/>
<path d="M51.9437 41.174C53.4312 42.6975 54.1851 44.9413 54.1851 47.8442C54.209 49.0425 54.0049 50.2343 53.5838 51.3564C53.1924 52.348 52.6025 53.2492 51.8502 54.0046L34.919 70.945H57.2895V0C32.7534 1.09149 12.0521 16.9256 3.81601 38.8649H44.2466C47.9073 38.8649 50.425 39.6202 51.9437 41.174Z" fill="url(#paint1_linear_1315_2352)"/>
<path d="M70.5123 54.9258L70.6124 54.8007L90.6266 37.8324C90.9431 37.4661 91.3366 37.1742 91.779 36.9775C92.2213 36.7808 92.7016 36.6842 93.1856 36.6944H103.632C104.876 36.6944 105.572 37.5089 105.712 38.3162C105.795 38.8251 105.73 39.5739 104.968 40.3371L104.888 40.4121L83.2394 59.3824L110.92 91.7269C116.87 82.2037 120.017 71.197 120 59.9678C120 30.3681 98.5887 5.77427 70.4173 0.839722V55.0516C70.4497 55.01 70.4799 54.9664 70.5123 54.9258Z" fill="url(#paint2_linear_1315_2352)"/>
</g>
<defs>
<linearGradient id="paint0_linear_1315_2352" x1="51.551" y1="116.328" x2="51.551" y2="1.88279" gradientUnits="userSpaceOnUse">
<stop stop-color="#5284D6"/>
<stop offset="1" stop-color="#1B2393"/>
</linearGradient>
<linearGradient id="paint1_linear_1315_2352" x1="30.5528" y1="116.35" x2="30.5528" y2="1.84456" gradientUnits="userSpaceOnUse">
<stop stop-color="#5284D6"/>
<stop offset="1" stop-color="#1B2393"/>
</linearGradient>
<linearGradient id="paint2_linear_1315_2352" x1="95.2088" y1="116.357" x2="95.2088" y2="1.83948" gradientUnits="userSpaceOnUse">
<stop stop-color="#5284D6"/>
<stop offset="1" stop-color="#1B2393"/>
</linearGradient>
<clipPath id="clip0_1315_2352">
<rect width="120" height="120" fill="white"/>
</clipPath>
</defs>
</svg>
