<svg width="225" height="226" viewBox="0 0 225 226" fill="none" xmlns="http://www.w3.org/2000/svg">
<g clip-path="url(#clip0_814_7636)">
<path d="M132.033 120.046V153.557C132.062 154.171 131.962 154.785 131.74 155.359C131.518 155.933 131.178 156.455 130.743 156.89C130.308 157.325 129.787 157.665 129.213 157.887C128.639 158.11 128.025 158.21 127.41 158.182H47.1035C39.8982 158.182 34.896 156.803 31.8116 153.969C28.6932 151.105 27.112 147.213 27.112 142.401C27.1014 140.043 27.6597 137.717 28.7396 135.621C29.8146 133.578 31.2004 131.714 32.8476 130.096L65.0336 98.0323H0.988525C0.330976 102.986 0.000884933 107.977 0.000427246 112.974C0.000427246 175.139 50.3684 225.534 112.5 225.534C127.583 225.551 142.514 222.525 156.4 216.638C170.286 210.751 182.842 202.122 193.316 191.269L132.08 120.107L132.033 120.046Z" fill="url(#paint0_linear_814_7636)"/>
<path d="M97.3943 77.7349C100.183 80.5914 101.597 84.7985 101.597 90.2415C101.642 92.4882 101.259 94.723 100.47 96.8268C99.7357 98.6861 98.6296 100.376 97.2191 101.792L65.4731 133.555H107.418V0.533569C61.4125 2.58011 22.5976 32.2691 7.15497 73.4053H82.9623C89.8262 73.4053 94.5469 74.8214 97.3943 77.7349Z" fill="url(#paint1_linear_814_7636)"/>
<path d="M132.21 103.519L132.398 103.285L169.925 71.4694C170.518 70.7826 171.256 70.2353 172.085 69.8665C172.915 69.4976 173.815 69.3164 174.723 69.3357H194.31C196.642 69.3357 197.948 70.8628 198.21 72.3765C198.365 73.3306 198.245 74.7347 196.815 76.1656L196.664 76.3064L156.074 111.876L207.976 172.522C219.132 154.666 225.032 134.028 225 112.973C225 57.4739 184.854 11.3604 132.032 2.10809V103.755C132.093 103.677 132.15 103.596 132.21 103.519Z" fill="url(#paint2_linear_814_7636)"/>
</g>
<defs>
<linearGradient id="paint0_linear_814_7636" x1="96.658" y1="218.649" x2="96.658" y2="4.06379" gradientUnits="userSpaceOnUse">
<stop stop-color="#5284D6"/>
<stop offset="1" stop-color="#1B2393"/>
</linearGradient>
<linearGradient id="paint1_linear_814_7636" x1="57.2864" y1="218.69" x2="57.2864" y2="3.99213" gradientUnits="userSpaceOnUse">
<stop stop-color="#5284D6"/>
<stop offset="1" stop-color="#1B2393"/>
</linearGradient>
<linearGradient id="paint2_linear_814_7636" x1="178.516" y1="218.704" x2="178.516" y2="3.98265" gradientUnits="userSpaceOnUse">
<stop stop-color="#5284D6"/>
<stop offset="1" stop-color="#1B2393"/>
</linearGradient>
<clipPath id="clip0_814_7636">
<rect width="225" height="225" fill="white" transform="translate(0 0.533569)"/>
</clipPath>
</defs>
</svg>
