<svg width="40" height="40" viewBox="0 0 40 40" fill="none" xmlns="http://www.w3.org/2000/svg">
  <ellipse cx="19.9997" cy="19.9998" rx="19.9997" ry="19.9998" fill="white"/>
  <path d="M23.4724 21.2464V27.2039C23.4774 27.3133 23.4596 27.4225 23.4201 27.5245C23.3806 27.6266 23.3202 27.7192 23.2429 27.7966C23.1655 27.874 23.0729 27.9344 22.9709 27.9739C22.8689 28.0135 22.7598 28.0313 22.6505 28.0262H8.37398C7.0931 28.0262 6.2039 27.7811 5.65542 27.2771C5.10106 26.7681 4.82025 26.0761 4.82025 25.2208C4.8183 24.8017 4.91743 24.3883 5.10924 24.0156C5.30037 23.6524 5.54673 23.321 5.8395 23.0334L11.5613 17.3333H0.175783C0.0588719 18.2138 0.000173221 19.1012 6.10352e-05 19.9895C6.10352e-05 31.041 8.95416 39.9999 19.9997 39.9999C22.6807 40.0031 25.3349 39.4653 27.8035 38.4186C30.272 37.372 32.5043 35.838 34.3667 33.9083L23.4805 21.2575L23.4724 21.2464Z" fill="url(#paint0_linear_36_341)"/>
  <path d="M17.3146 13.7246C17.8104 14.2324 18.0617 14.9804 18.0617 15.948C18.0696 16.3474 18.0016 16.7447 17.8614 17.1187C17.7308 17.4493 17.5341 17.7496 17.2834 18.0014L11.6398 23.6481H19.0966V0C10.9181 0.36392 4.01778 5.64187 1.27246 12.9549H14.7491C15.969 12.9549 16.8082 13.2067 17.3146 13.7246Z" fill="url(#paint1_linear_36_341)"/>
  <path d="M23.5038 18.3082L23.5373 18.2665L30.2086 12.6105C30.3141 12.4884 30.4453 12.3911 30.5927 12.3255C30.7401 12.2599 30.9002 12.2277 31.0615 12.2311H34.5436C34.9581 12.2311 35.1905 12.5026 35.2369 12.7717C35.2645 12.9413 35.2431 13.1909 34.9889 13.4453L34.9621 13.4702L27.7462 19.7939L36.9734 30.5754C38.9566 27.4014 40.0056 23.7324 40 19.9892C40 10.1227 32.863 1.92483 23.4727 0.280029V18.3504C23.4829 18.3369 23.4928 18.3219 23.5038 18.3082Z" fill="url(#paint2_linear_36_341)"/>
  <defs>
  <linearGradient id="paint0_linear_36_341" x1="17.1834" y1="38.7759" x2="17.1834" y2="0.62793" gradientUnits="userSpaceOnUse">
  <stop stop-color="#5284D6"/>
  <stop offset="1" stop-color="#1B2393"/>
  </linearGradient>
  <linearGradient id="paint1_linear_36_341" x1="10.1845" y1="38.783" x2="10.1845" y2="0.61485" gradientUnits="userSpaceOnUse">
  <stop stop-color="#5284D6"/>
  <stop offset="1" stop-color="#1B2393"/>
  </linearGradient>
  <linearGradient id="paint2_linear_36_341" x1="31.7363" y1="38.7855" x2="31.7363" y2="0.613279" gradientUnits="userSpaceOnUse">
  <stop stop-color="#5284D6"/>
  <stop offset="1" stop-color="#1B2393"/>
  </linearGradient>
  </defs>
  </svg>
  